<svg width="417" height="121" viewBox="0 0 417 121" fill="none" xmlns="http://www.w3.org/2000/svg">
<path d="M415.282 70.5498C416.935 68.694 416.771 65.8495 414.915 64.1965L384.672 37.2594C382.816 35.6064 379.971 35.7708 378.318 37.6267C376.665 39.4826 376.83 42.3271 378.686 43.9801L405.568 67.9241L381.624 94.8069C379.971 96.6627 380.136 99.5072 381.992 101.16C383.848 102.813 386.692 102.649 388.345 100.793L415.282 70.5498ZM16.3379 94.9357L412.182 72.0493L411.662 63.0643L15.8184 85.9507L16.3379 94.9357Z" fill="#4C8A53"/>
<path d="M4.91211 97V24.2727H24.6564V81.0909H54.0598V97H4.91211Z" fill="#25702D"/>
<path d="M88.6035 97.9943C82.685 97.9943 77.6187 96.8224 73.4047 94.4787C69.1906 92.1113 65.9591 88.8205 63.71 84.6065C61.461 80.3688 60.3365 75.4564 60.3365 69.8693C60.3365 64.2822 61.461 59.3816 63.71 55.1676C65.9591 50.9299 69.1906 47.6392 73.4047 45.2955C77.6187 42.928 82.685 41.7443 88.6035 41.7443C94.5221 41.7443 99.5884 42.928 103.802 45.2955C108.016 47.6392 111.248 50.9299 113.497 55.1676C115.746 59.3816 116.871 64.2822 116.871 69.8693C116.871 75.4564 115.746 80.3688 113.497 84.6065C111.248 88.8205 108.016 92.1113 103.802 94.4787C99.5884 96.8224 94.5221 97.9943 88.6035 97.9943ZM88.7456 83.5057C90.4028 83.5057 91.835 82.9493 93.0424 81.8366C94.2498 80.724 95.185 79.1378 95.8478 77.0781C96.5107 75.0185 96.8422 72.5682 96.8422 69.7273C96.8422 66.8627 96.5107 64.4124 95.8478 62.3764C95.185 60.3168 94.2498 58.7306 93.0424 57.6179C91.835 56.5052 90.4028 55.9489 88.7456 55.9489C86.9937 55.9489 85.4904 56.5052 84.2356 57.6179C82.9809 58.7306 82.0221 60.3168 81.3592 62.3764C80.6963 64.4124 80.3649 66.8627 80.3649 69.7273C80.3649 72.5682 80.6963 75.0185 81.3592 77.0781C82.0221 79.1378 82.9809 80.724 84.2356 81.8366C85.4904 82.9493 86.9937 83.5057 88.7456 83.5057ZM151.104 97.9943C145.185 97.9943 140.119 96.8224 135.905 94.4787C131.691 92.1113 128.459 88.8205 126.21 84.6065C123.961 80.3688 122.836 75.4564 122.836 69.8693C122.836 64.2822 123.961 59.3816 126.21 55.1676C128.459 50.9299 131.691 47.6392 135.905 45.2955C140.119 42.928 145.185 41.7443 151.104 41.7443C157.022 41.7443 162.088 42.928 166.302 45.2955C170.516 47.6392 173.748 50.9299 175.997 55.1676C178.246 59.3816 179.371 64.2822 179.371 69.8693C179.371 75.4564 178.246 80.3688 175.997 84.6065C173.748 88.8205 170.516 92.1113 166.302 94.4787C162.088 96.8224 157.022 97.9943 151.104 97.9943ZM151.246 83.5057C152.903 83.5057 154.335 82.9493 155.542 81.8366C156.75 80.724 157.685 79.1378 158.348 77.0781C159.011 75.0185 159.342 72.5682 159.342 69.7273C159.342 66.8627 159.011 64.4124 158.348 62.3764C157.685 60.3168 156.75 58.7306 155.542 57.6179C154.335 56.5052 152.903 55.9489 151.246 55.9489C149.494 55.9489 147.99 56.5052 146.736 57.6179C145.481 58.7306 144.522 60.3168 143.859 62.3764C143.196 64.4124 142.865 66.8627 142.865 69.7273C142.865 72.5682 143.196 75.0185 143.859 77.0781C144.522 79.1378 145.481 80.724 146.736 81.8366C147.99 82.9493 149.494 83.5057 151.246 83.5057ZM187.325 97V42.4545H205.933V52.8239H206.501C207.638 49.4148 209.579 46.7159 212.325 44.7273C215.071 42.7386 218.338 41.7443 222.126 41.7443C225.961 41.7443 229.264 42.7623 232.034 44.7983C234.804 46.8106 236.473 49.4858 237.041 52.8239H237.609C238.532 49.4858 240.497 46.8106 243.504 44.7983C246.511 42.7623 250.038 41.7443 254.086 41.7443C259.318 41.7443 263.556 43.4252 266.8 46.7869C270.067 50.1487 271.7 54.6231 271.7 60.2102V97H252.098V65.1818C252.098 62.7907 251.494 60.9205 250.287 59.571C249.079 58.1979 247.458 57.5114 245.422 57.5114C243.409 57.5114 241.811 58.1979 240.628 59.571C239.468 60.9205 238.888 62.7907 238.888 65.1818V97H220.138V65.1818C220.138 62.7907 219.534 60.9205 218.327 59.571C217.119 58.1979 215.497 57.5114 213.461 57.5114C212.112 57.5114 210.952 57.8191 209.981 58.4347C209.011 59.0502 208.253 59.938 207.709 61.098C207.188 62.2344 206.927 63.5956 206.927 65.1818V97H187.325ZM281.368 97V42.4545H300.97V97H281.368ZM291.169 36.7727C288.518 36.7727 286.245 35.8968 284.351 34.1449C282.457 32.393 281.51 30.286 281.51 27.8239C281.51 25.3617 282.457 23.2547 284.351 21.5028C286.245 19.7509 288.518 18.875 291.169 18.875C293.844 18.875 296.117 19.7509 297.987 21.5028C299.881 23.2547 300.828 25.3617 300.828 27.8239C300.828 30.286 299.881 32.393 297.987 34.1449C296.117 35.8968 293.844 36.7727 291.169 36.7727ZM360.816 60.2102H342.776C342.681 59.0975 342.291 58.1387 341.604 57.3338C340.918 56.5289 340.03 55.9134 338.941 55.4872C337.876 55.0374 336.692 54.8125 335.39 54.8125C333.709 54.8125 332.265 55.1203 331.057 55.7358C329.85 56.3513 329.258 57.2273 329.282 58.3636C329.258 59.1686 329.601 59.9143 330.312 60.6009C331.046 61.2874 332.454 61.8201 334.537 62.1989L345.617 64.1875C351.204 65.2055 355.359 66.9219 358.082 69.3366C360.828 71.7277 362.213 74.9356 362.236 78.9602C362.213 82.8428 361.053 86.2164 358.756 89.081C356.483 91.9219 353.37 94.1236 349.417 95.6861C345.487 97.2249 341.001 97.9943 335.958 97.9943C327.625 97.9943 321.102 96.2898 316.391 92.8807C311.704 89.4716 309.088 84.9735 308.543 79.3864H328.003C328.264 81.1146 329.116 82.4522 330.56 83.3991C332.028 84.3224 333.875 84.7841 336.1 84.7841C337.899 84.7841 339.379 84.4763 340.539 83.8608C341.723 83.2453 342.326 82.3693 342.35 81.233C342.326 80.1913 341.805 79.3627 340.787 78.7472C339.793 78.1316 338.231 77.6345 336.1 77.2557L326.441 75.5511C320.877 74.5805 316.711 72.7339 313.941 70.0114C311.171 67.2888 309.798 63.785 309.822 59.5C309.798 55.7121 310.792 52.5043 312.805 49.8764C314.84 47.2249 317.741 45.2126 321.505 43.8395C325.293 42.4427 329.779 41.7443 334.964 41.7443C342.847 41.7443 349.062 43.3778 353.607 46.6449C358.176 49.9119 360.579 54.4337 360.816 60.2102Z" fill="#022D07"/>
</svg>
