<svg width="412" height="90" viewBox="0 0 412 90" fill="none" xmlns="http://www.w3.org/2000/svg">
<path d="M10.6882 29.64C10.6882 28.3173 11.0082 27.1227 11.6482 26.056C12.2882 24.9467 13.1629 24.072 14.2722 23.432C15.3389 22.7493 16.5336 22.408 17.8563 22.408C19.1789 22.408 20.3736 22.7493 21.4403 23.432C22.5496 24.072 23.4242 24.9467 24.0642 26.056C24.7469 27.1227 25.0883 28.3173 25.0883 29.64C25.0883 30.9627 24.7469 32.1787 24.0642 33.288C23.4242 34.3547 22.5496 35.208 21.4403 35.848C20.3736 36.488 19.1789 36.808 17.8563 36.808C16.5336 36.808 15.3389 36.488 14.2722 35.848C13.1629 35.208 12.2882 34.3547 11.6482 33.288C11.0082 32.1787 10.6882 30.9627 10.6882 29.64Z" fill="#25702D"/>
<path d="M24.8713 28.464L31.2713 57.904L17.1912 60.976L10.7912 31.536L24.8713 28.464ZM17.0382 59C17.0382 57.6773 17.3582 56.4827 17.9983 55.416C18.6383 54.3067 19.5129 53.432 20.6222 52.792C21.6889 52.1093 22.8836 51.768 24.2062 51.768C25.5289 51.768 26.7236 52.1093 27.7903 52.792C28.8996 53.432 29.7743 54.3067 30.4143 55.416C31.0969 56.4827 31.4383 57.6773 31.4383 59C31.4383 60.3227 31.0969 61.5173 30.4143 62.584C29.7743 63.6933 28.8996 64.568 27.7903 65.208C26.7236 65.848 25.5289 66.168 24.2062 66.168C22.8836 66.168 21.6889 65.848 20.6222 65.208C19.5129 64.568 18.6383 63.6933 17.9983 62.584C17.3582 61.5173 17.0382 60.3227 17.0382 59ZM24.2062 51.768H30.6063V66.168H24.2062V51.768ZM23.4132 59C23.4132 57.6773 23.7332 56.4827 24.3733 55.416C25.0133 54.3067 25.8879 53.432 26.9972 52.792C28.0639 52.1093 29.2586 51.768 30.5812 51.768C31.9039 51.768 33.0986 52.1093 34.1653 52.792C35.2746 53.432 36.1493 54.3067 36.7893 55.416C37.4719 56.4827 37.8133 57.6773 37.8133 59C37.8133 60.3227 37.4719 61.5173 36.7893 62.584C36.1493 63.6933 35.2746 64.568 34.1653 65.208C33.0986 65.848 31.9039 66.168 30.5812 66.168C29.2586 66.168 28.0639 65.848 26.9972 65.208C25.8879 64.568 25.0133 63.6933 24.3733 62.584C23.7332 61.5173 23.4132 60.3227 23.4132 59ZM33.2052 52.344L39.6053 54.904L34.3573 68.216L27.9572 65.656L33.2052 52.344ZM29.7882 62C29.7882 60.6773 30.1082 59.4827 30.7483 58.416C31.3883 57.3067 32.2629 56.432 33.3722 55.792C34.4389 55.1093 35.6336 54.768 36.9562 54.768C38.2789 54.768 39.4736 55.1093 40.5403 55.792C41.6496 56.432 42.5243 57.3067 43.1643 58.416C43.8469 59.4827 44.1883 60.6773 44.1883 62C44.1883 63.3227 43.8469 64.5173 43.1643 65.584C42.5243 66.6933 41.6496 67.568 40.5403 68.208C39.4736 68.848 38.2789 69.168 36.9562 69.168C35.6336 69.168 34.4389 68.848 33.3722 68.208C32.2629 67.568 31.3883 66.6933 30.7483 65.584C30.1082 64.5173 29.7882 63.3227 29.7882 62ZM41.4363 56.368L47.8363 61.488L38.8762 72.752L32.4762 67.632L41.4363 56.368ZM36.1632 67C36.1632 65.6773 36.4832 64.4827 37.1233 63.416C37.7633 62.3067 38.6379 61.432 39.7472 60.792C40.8139 60.1093 42.0086 59.768 43.3312 59.768C44.6539 59.768 45.8486 60.1093 46.9153 60.792C48.0246 61.432 48.8993 62.3067 49.5393 63.416C50.2219 64.4827 50.5633 65.6773 50.5633 67C50.5633 68.3227 50.2219 69.5173 49.5393 70.584C48.8993 71.6933 48.0246 72.568 46.9153 73.208C45.8486 73.848 44.6539 74.168 43.3312 74.168C42.0086 74.168 40.8139 73.848 39.7472 73.208C38.6379 72.568 37.7633 71.6933 37.1233 70.584C36.4832 69.5173 36.1632 68.3227 36.1632 67ZM36.8672 63.8L43.2672 51L56.1953 57.4L49.7953 70.2L36.8672 63.8ZM42.5382 54C42.5382 52.6773 42.8582 51.4827 43.4983 50.416C44.1383 49.3067 45.0129 48.432 46.1222 47.792C47.1889 47.1093 48.3836 46.768 49.7062 46.768C51.0289 46.768 52.2236 47.1093 53.2903 47.792C54.3996 48.432 55.2743 49.3067 55.9143 50.416C56.5969 51.4827 56.9383 52.6773 56.9383 54C56.9383 55.3227 56.5969 56.5173 55.9143 57.584C55.2743 58.6933 54.3996 59.568 53.2903 60.208C52.2236 60.848 51.0289 61.168 49.7062 61.168C48.3836 61.168 47.1889 60.848 46.1222 60.208C45.0129 59.568 44.1383 58.6933 43.4983 57.584C42.8582 56.5173 42.5382 55.3227 42.5382 54ZM54.1863 48.368L60.5863 53.488L51.6262 64.752L45.2262 59.632L54.1863 48.368ZM48.9132 59C48.9132 57.6773 49.2332 56.4827 49.8733 55.416C50.5133 54.3067 51.3879 53.432 52.4972 52.792C53.5639 52.1093 54.7586 51.768 56.0812 51.768C57.4039 51.768 58.5986 52.1093 59.6653 52.792C60.7746 53.432 61.6493 54.3067 62.2893 55.416C62.9719 56.4827 63.3133 57.6773 63.3133 59C63.3133 60.3227 62.9719 61.5173 62.2893 62.584C61.6493 63.6933 60.7746 64.568 59.6653 65.208C58.5986 65.848 57.4039 66.168 56.0812 66.168C54.7586 66.168 53.5639 65.848 52.4972 65.208C51.3879 64.568 50.5133 63.6933 49.8733 62.584C49.2332 61.5173 48.9132 60.3227 48.9132 59ZM81.7812 77V50H85.1562V74.1875H106.531V77H81.7812ZM121.736 77.3867C119.475 77.3867 117.553 77.2695 115.971 77.0352C114.389 76.8125 113.111 76.3496 112.139 75.6465C111.166 74.9316 110.457 73.8652 110.012 72.4473C109.566 71.0293 109.344 69.1367 109.344 66.7695C109.344 64.4727 109.566 62.6328 110.012 61.25C110.457 59.8672 111.166 58.8242 112.139 58.1211C113.111 57.418 114.389 56.9492 115.971 56.7148C117.553 56.4805 119.475 56.3633 121.736 56.3633C124.01 56.3633 125.932 56.4805 127.502 56.7148C129.084 56.9492 130.361 57.418 131.334 58.1211C132.307 58.8242 133.016 59.8672 133.461 61.25C133.906 62.6328 134.129 64.4727 134.129 66.7695C134.129 69.1367 133.906 71.0293 133.461 72.4473C133.016 73.8652 132.307 74.9316 131.334 75.6465C130.361 76.3496 129.084 76.8125 127.502 77.0352C125.932 77.2695 124.01 77.3867 121.736 77.3867ZM130.754 66.7695C130.754 65.0938 130.666 63.752 130.49 62.7441C130.326 61.7363 129.957 60.9805 129.383 60.4766C128.809 59.9609 127.912 59.6152 126.693 59.4395C125.486 59.2637 123.834 59.1758 121.736 59.1758C119.65 59.1758 117.998 59.2637 116.779 59.4395C115.561 59.6152 114.664 59.9609 114.09 60.4766C113.516 60.9805 113.141 61.7363 112.965 62.7441C112.801 63.752 112.719 65.0938 112.719 66.7695C112.719 68.5039 112.801 69.8926 112.965 70.9355C113.141 71.9785 113.516 72.7637 114.09 73.291C114.664 73.8066 115.561 74.1523 116.779 74.3281C117.998 74.4922 119.65 74.5742 121.736 74.5742C123.834 74.5742 125.486 74.4922 126.693 74.3281C127.912 74.1523 128.809 73.8066 129.383 73.291C129.957 72.7637 130.326 71.9785 130.49 70.9355C130.666 69.8926 130.754 68.5039 130.754 66.7695ZM149.896 77.3867C147.635 77.3867 145.713 77.2695 144.131 77.0352C142.549 76.8125 141.271 76.3496 140.299 75.6465C139.326 74.9316 138.617 73.8652 138.172 72.4473C137.727 71.0293 137.504 69.1367 137.504 66.7695C137.504 64.4727 137.727 62.6328 138.172 61.25C138.617 59.8672 139.326 58.8242 140.299 58.1211C141.271 57.418 142.549 56.9492 144.131 56.7148C145.713 56.4805 147.635 56.3633 149.896 56.3633C152.17 56.3633 154.092 56.4805 155.662 56.7148C157.244 56.9492 158.521 57.418 159.494 58.1211C160.467 58.8242 161.176 59.8672 161.621 61.25C162.066 62.6328 162.289 64.4727 162.289 66.7695C162.289 69.1367 162.066 71.0293 161.621 72.4473C161.176 73.8652 160.467 74.9316 159.494 75.6465C158.521 76.3496 157.244 76.8125 155.662 77.0352C154.092 77.2695 152.17 77.3867 149.896 77.3867ZM158.914 66.7695C158.914 65.0938 158.826 63.752 158.65 62.7441C158.486 61.7363 158.117 60.9805 157.543 60.4766C156.969 59.9609 156.072 59.6152 154.854 59.4395C153.646 59.2637 151.994 59.1758 149.896 59.1758C147.811 59.1758 146.158 59.2637 144.939 59.4395C143.721 59.6152 142.824 59.9609 142.25 60.4766C141.676 60.9805 141.301 61.7363 141.125 62.7441C140.961 63.752 140.879 65.0938 140.879 66.7695C140.879 68.5039 140.961 69.8926 141.125 70.9355C141.301 71.9785 141.676 72.7637 142.25 73.291C142.824 73.8066 143.721 74.1523 144.939 74.3281C146.158 74.4922 147.811 74.5742 149.896 74.5742C151.994 74.5742 153.646 74.4922 154.854 74.3281C156.072 74.1523 156.969 73.8066 157.543 73.291C158.117 72.7637 158.486 71.9785 158.65 70.9355C158.826 69.8926 158.914 68.5039 158.914 66.7695ZM166.297 77V56.75H169.672V59.2637C170.176 58.584 170.779 58.0156 171.482 57.5586C172.186 57.1016 173.082 56.7617 174.172 56.5391C175.273 56.3047 176.68 56.1875 178.391 56.1875C180.512 56.1875 182.24 56.4746 183.576 57.0488C184.912 57.623 185.896 58.6133 186.529 60.0195C187.104 59.1289 187.795 58.4023 188.604 57.8398C189.412 57.2656 190.426 56.8496 191.645 56.5918C192.875 56.3223 194.387 56.1875 196.18 56.1875C198.312 56.1875 200.047 56.4805 201.383 57.0664C202.719 57.6406 203.697 58.625 204.318 60.0195C204.951 61.4141 205.268 63.3242 205.268 65.75V77H201.893V65.75C201.893 63.8984 201.699 62.4922 201.312 61.5312C200.926 60.5586 200.281 59.8965 199.379 59.5449C198.488 59.1816 197.281 59 195.758 59C192.77 59 190.637 59.4395 189.359 60.3184C188.094 61.1973 187.461 62.6328 187.461 64.625V64.6074C187.473 64.9707 187.479 65.3516 187.479 65.75V77H184.104V65.75C184.104 63.8984 183.91 62.4922 183.523 61.5312C183.137 60.5586 182.492 59.8965 181.59 59.5449C180.699 59.1816 179.492 59 177.969 59C174.98 59 172.848 59.4395 171.57 60.3184C170.305 61.1973 169.672 62.6328 169.672 64.625V77H166.297ZM209.715 77V57.875H213.09V77H209.715ZM209.715 53.375V50H213.09V53.375H209.715ZM229.033 77.3867C226.572 77.3867 224.592 77.3047 223.092 77.1406C221.604 76.9766 220.473 76.6719 219.699 76.2266C218.938 75.7812 218.422 75.1484 218.152 74.3281C217.895 73.5078 217.766 72.4414 217.766 71.1289H221C221 71.8672 221.053 72.4648 221.158 72.9219C221.264 73.3672 221.562 73.7129 222.055 73.959C222.547 74.1934 223.344 74.3574 224.445 74.4512C225.559 74.5332 227.117 74.5742 229.121 74.5742C231.242 74.5742 232.889 74.5332 234.061 74.4512C235.244 74.3574 236.094 74.1934 236.609 73.959C237.125 73.7129 237.436 73.3613 237.541 72.9043C237.658 72.4473 237.717 71.8438 237.717 71.0938C237.717 70.1797 237.635 69.4941 237.471 69.0371C237.307 68.5801 236.92 68.2754 236.311 68.123C235.701 67.959 234.729 67.8711 233.393 67.8594L225.342 67.7715C223.268 67.748 221.686 67.5723 220.596 67.2441C219.506 66.916 218.762 66.3418 218.363 65.5215C217.965 64.6895 217.766 63.5117 217.766 61.9883C217.766 60.5703 217.982 59.4746 218.416 58.7012C218.861 57.9277 219.553 57.377 220.49 57.0488C221.428 56.7207 222.646 56.5273 224.146 56.4688C225.646 56.3984 227.457 56.3633 229.578 56.3633C232.074 56.3633 234.055 56.4395 235.52 56.5918C236.996 56.7441 238.098 57.0312 238.824 57.4531C239.562 57.875 240.043 58.4902 240.266 59.2988C240.5 60.0957 240.617 61.1387 240.617 62.4277H237.383C237.383 61.666 237.33 61.0684 237.225 60.6348C237.119 60.1895 236.832 59.8672 236.363 59.668C235.906 59.457 235.156 59.3223 234.113 59.2637C233.082 59.2051 231.629 59.1758 229.754 59.1758C227.621 59.1758 225.963 59.1992 224.779 59.2461C223.596 59.293 222.74 59.4043 222.213 59.5801C221.686 59.7559 221.363 60.0371 221.246 60.4238C221.129 60.7988 221.07 61.3203 221.07 61.9883C221.07 62.668 221.105 63.207 221.176 63.6055C221.258 63.9922 221.463 64.2852 221.791 64.4844C222.119 64.6836 222.652 64.8184 223.391 64.8887C224.141 64.9473 225.184 64.9824 226.52 64.9941L233.463 65.0645C235.549 65.0879 237.131 65.2637 238.209 65.5918C239.299 65.9082 240.037 66.5 240.424 67.3672C240.822 68.2227 241.021 69.4648 241.021 71.0938C241.021 72.5586 240.805 73.7129 240.371 74.5566C239.949 75.4004 239.27 76.0273 238.332 76.4375C237.395 76.8359 236.158 77.0938 234.623 77.2109C233.1 77.3281 231.236 77.3867 229.033 77.3867ZM257.369 77.3867C255.107 77.3867 253.186 77.2695 251.604 77.0352C250.021 76.8125 248.744 76.3496 247.771 75.6465C246.799 74.9316 246.09 73.8652 245.645 72.4473C245.199 71.0293 244.977 69.1367 244.977 66.7695C244.977 64.4727 245.199 62.6328 245.645 61.25C246.09 59.8672 246.799 58.8242 247.771 58.1211C248.744 57.418 250.021 56.9492 251.604 56.7148C253.186 56.4805 255.107 56.3633 257.369 56.3633C260.076 56.3633 262.303 56.5215 264.049 56.8379C265.807 57.1426 267.107 57.7754 267.951 58.7363C268.795 59.6973 269.217 61.1621 269.217 63.1309H265.982C265.982 61.9941 265.748 61.1445 265.279 60.582C264.811 60.0195 263.955 59.6445 262.713 59.457C261.471 59.2695 259.689 59.1758 257.369 59.1758C255.283 59.1758 253.631 59.2637 252.412 59.4395C251.193 59.6152 250.297 59.9609 249.723 60.4766C249.148 60.9805 248.773 61.7363 248.598 62.7441C248.434 63.752 248.352 65.0938 248.352 66.7695C248.352 68.5039 248.434 69.8926 248.598 70.9355C248.773 71.9785 249.148 72.7637 249.723 73.291C250.297 73.8066 251.193 74.1523 252.412 74.3281C253.631 74.4922 255.283 74.5742 257.369 74.5742C259.139 74.5742 260.586 74.5273 261.711 74.4336C262.836 74.3281 263.709 74.1289 264.33 73.8359C264.951 73.5312 265.379 73.0977 265.613 72.5352C265.859 71.9609 265.982 71.1992 265.982 70.25H269.217C269.217 71.8203 268.982 73.0801 268.514 74.0293C268.045 74.9785 267.33 75.6934 266.369 76.1738C265.408 76.6543 264.178 76.9766 262.678 77.1406C261.189 77.3047 259.42 77.3867 257.369 77.3867ZM285.002 77.3867C282.74 77.3867 280.818 77.2695 279.236 77.0352C277.654 76.8125 276.377 76.3496 275.404 75.6465C274.432 74.9316 273.723 73.8652 273.277 72.4473C272.832 71.0293 272.609 69.1367 272.609 66.7695C272.609 64.4727 272.832 62.6328 273.277 61.25C273.723 59.8672 274.432 58.8242 275.404 58.1211C276.377 57.418 277.654 56.9492 279.236 56.7148C280.818 56.4805 282.74 56.3633 285.002 56.3633C287.275 56.3633 289.197 56.4805 290.768 56.7148C292.35 56.9492 293.627 57.418 294.6 58.1211C295.572 58.8242 296.281 59.8672 296.727 61.25C297.172 62.6328 297.395 64.4727 297.395 66.7695C297.395 69.1367 297.172 71.0293 296.727 72.4473C296.281 73.8652 295.572 74.9316 294.6 75.6465C293.627 76.3496 292.35 76.8125 290.768 77.0352C289.197 77.2695 287.275 77.3867 285.002 77.3867ZM294.02 66.7695C294.02 65.0938 293.932 63.752 293.756 62.7441C293.592 61.7363 293.223 60.9805 292.648 60.4766C292.074 59.9609 291.178 59.6152 289.959 59.4395C288.752 59.2637 287.1 59.1758 285.002 59.1758C282.916 59.1758 281.264 59.2637 280.045 59.4395C278.826 59.6152 277.93 59.9609 277.355 60.4766C276.781 60.9805 276.406 61.7363 276.23 62.7441C276.066 63.752 275.984 65.0938 275.984 66.7695C275.984 68.5039 276.066 69.8926 276.23 70.9355C276.406 71.9785 276.781 72.7637 277.355 73.291C277.93 73.8066 278.826 74.1523 280.045 74.3281C281.264 74.4922 282.916 74.5742 285.002 74.5742C287.1 74.5742 288.752 74.4922 289.959 74.3281C291.178 74.1523 292.074 73.8066 292.648 73.291C293.223 72.7637 293.592 71.9785 293.756 70.9355C293.932 69.8926 294.02 68.5039 294.02 66.7695ZM311.738 77.3867C309.09 77.3867 307.004 77.0996 305.48 76.5254C303.957 75.9395 302.873 74.9668 302.229 73.6074C301.584 72.2363 301.262 70.3672 301.262 68V56.75H304.654V68C304.654 69.3359 304.76 70.4375 304.971 71.3047C305.193 72.1602 305.58 72.8281 306.131 73.3086C306.682 73.7773 307.455 74.1055 308.451 74.293C309.459 74.4805 310.754 74.5742 312.336 74.5742C314.68 74.5742 316.52 74.3809 317.855 73.9941C319.191 73.6074 320.135 73.0039 320.686 72.1836C321.248 71.3516 321.529 70.2734 321.529 68.9492V56.75H324.904V77H321.529V74.3105C321.037 74.9902 320.416 75.5586 319.666 76.0156C318.916 76.4727 317.914 76.8125 316.66 77.0352C315.406 77.2695 313.766 77.3867 311.738 77.3867ZM329.844 77V56.75H333.219V59.5449C333.594 58.9473 333.969 58.4492 334.344 58.0508C334.73 57.6523 335.229 57.3359 335.838 57.1016C336.459 56.8672 337.297 56.7031 338.352 56.6094C339.406 56.5039 340.795 56.4512 342.518 56.4512V59.2812C340.197 59.2812 338.398 59.3633 337.121 59.5273C335.855 59.6914 334.947 59.9727 334.396 60.3711C333.846 60.7578 333.512 61.2969 333.395 61.9883C333.277 62.6797 333.219 63.5586 333.219 64.625V77H329.844ZM346.824 77V57.875H350.199V77H346.824ZM346.824 53.375V50H350.199V53.375H346.824ZM377.885 70.9883C377.885 72.5 377.656 73.6895 377.199 74.5566C376.754 75.4238 376.068 76.0566 375.143 76.4551C374.217 76.8535 373.033 77.1055 371.592 77.2109C370.162 77.3281 368.457 77.3867 366.477 77.3867C364.215 77.3867 362.293 77.2695 360.711 77.0352C359.141 76.8125 357.869 76.3496 356.896 75.6465C355.936 74.9316 355.232 73.8652 354.787 72.4473C354.354 71.0293 354.137 69.1367 354.137 66.7695C354.137 64.4727 354.348 62.6328 354.77 61.25C355.203 59.8672 355.9 58.8242 356.861 58.1211C357.822 57.418 359.082 56.9492 360.641 56.7148C362.211 56.4805 364.127 56.3633 366.389 56.3633C368.979 56.3633 371.123 56.5449 372.822 56.9082C374.521 57.2715 375.787 57.9629 376.619 58.9824C377.463 60.002 377.885 61.4961 377.885 63.4648V67.8066H357.529C357.541 69.3066 357.646 70.5078 357.846 71.4102C358.045 72.3125 358.443 72.9922 359.041 73.4492C359.639 73.9062 360.529 74.2109 361.713 74.3633C362.908 74.5039 364.496 74.5742 366.477 74.5742C368.258 74.5742 369.693 74.5391 370.783 74.4688C371.885 74.3984 372.717 74.2461 373.279 74.0117C373.854 73.7656 374.24 73.4023 374.439 72.9219C374.639 72.4414 374.738 71.7969 374.738 70.9883H377.885ZM366.389 59.1758C364.479 59.1758 362.938 59.2461 361.766 59.3867C360.605 59.5273 359.721 59.8027 359.111 60.2129C358.502 60.6113 358.086 61.209 357.863 62.0059C357.652 62.8027 357.541 63.8516 357.529 65.1523H374.65V63.4648C374.65 62.6211 374.551 61.9238 374.352 61.373C374.164 60.8105 373.789 60.3711 373.227 60.0547C372.664 59.7266 371.832 59.498 370.73 59.3691C369.641 59.2402 368.193 59.1758 366.389 59.1758ZM382.613 77V56.75H385.988V59.5449C386.363 58.9473 386.738 58.4492 387.113 58.0508C387.5 57.6523 387.998 57.3359 388.607 57.1016C389.229 56.8672 390.066 56.7031 391.121 56.6094C392.176 56.5039 393.564 56.4512 395.287 56.4512V59.2812C392.967 59.2812 391.168 59.3633 389.891 59.5273C388.625 59.6914 387.717 59.9727 387.166 60.3711C386.615 60.7578 386.281 61.2969 386.164 61.9883C386.047 62.6797 385.988 63.5586 385.988 64.625V77H382.613Z" fill="#022D07"/>
</svg>
